<svg xmlns="http://www.w3.org/2000/svg" width="2048" height="2048" viewBox="0 0 2048 2048" version="1.1"><path d="M 638 383.112 C 636.625 383.532, 632.800 384.423, 629.500 385.092 C 623.919 386.224, 610.760 390.635, 605 393.304 C 602.300 394.555, 597.633 397.354, 589.065 402.860 C 577.391 410.362, 561.643 426.252, 555.477 436.750 C 554.428 438.538, 553.216 440, 552.784 440 C 552.353 440, 552 440.863, 552 441.917 C 552 442.971, 551.663 443.983, 551.250 444.167 C 550.157 444.653, 544 456.883, 544 458.568 C 544 459.356, 543.602 460, 543.117 460 C 542.631 460, 541.988 461.012, 541.687 462.250 C 541.387 463.488, 540.151 467.875, 538.940 472 C 537.729 476.125, 536.307 482.200, 535.780 485.500 C 534.507 493.462, 533.695 512.795, 534.547 514.861 C 534.919 515.762, 535.342 518.975, 535.487 522 C 535.632 525.025, 536.293 529.525, 536.955 532 C 537.617 534.475, 538.625 538.300, 539.195 540.500 C 541.664 550.024, 545.431 558.701, 550.917 567.500 C 552.975 570.800, 555.899 576.200, 557.416 579.500 C 558.933 582.800, 560.585 586.281, 561.087 587.236 C 561.589 588.191, 562 590.083, 562 591.439 C 562 592.796, 562.534 595.079, 563.188 596.513 C 565.680 601.983, 560.091 618.276, 554.739 621.140 C 553.530 621.787, 551.938 622.919, 551.201 623.656 C 550.463 624.394, 548.654 625.258, 547.180 625.576 C 545.706 625.895, 543.600 626.575, 542.500 627.089 C 541.313 627.642, 493.140 628.171, 424 628.389 C 359.925 628.592, 305.065 629.085, 302.089 629.486 C 299.113 629.887, 295.162 631.066, 293.309 632.107 C 291.456 633.148, 289.361 634, 288.654 634 C 286.563 634, 278.475 642.711, 275.512 648.156 C 269.639 658.945, 270.025 633.223, 270.012 1015.201 C 270.001 1324.091, 270.182 1367.601, 271.495 1372.642 C 275.856 1389.385, 286.312 1401.487, 301.883 1407.813 L 307.267 1410 630.229 1410 L 953.191 1410 956.346 1407.783 C 960.810 1404.645, 962 1403.355, 962 1401.655 C 962 1400.836, 962.391 1400.017, 962.868 1399.833 C 963.831 1399.463, 964.765 1347.678, 965.629 1246.795 L 966.201 1180.091 964.061 1177.085 C 962.883 1175.432, 960.590 1173.132, 958.963 1171.974 L 956.006 1169.868 949.753 1172 C 946.314 1173.172, 942.600 1174.506, 941.500 1174.965 C 936.676 1176.975, 922.851 1181.001, 914.500 1182.828 C 890.720 1188.029, 850.881 1186.120, 833.500 1178.947 C 832.400 1178.493, 828.575 1177.106, 825 1175.865 C 806.018 1169.275, 781.265 1152.970, 765.457 1136.643 C 750.445 1121.138, 737.413 1100.824, 730.081 1081.500 C 727.422 1074.490, 726.650 1072.497, 725.125 1068.703 C 724.506 1067.165, 724 1064.667, 724 1063.153 C 724 1061.639, 723.577 1059.972, 723.060 1059.450 C 722.542 1058.927, 721.822 1056.025, 721.460 1053 C 718.841 1031.160, 718.406 1016.548, 720.059 1006 C 720.619 1002.425, 721.348 996.913, 721.678 993.750 C 722.008 990.588, 722.665 988, 723.139 988 C 723.612 988, 724 986.567, 724 984.817 C 724 981.505, 726.780 972.568, 730.084 965.261 C 731.138 962.929, 732 960.764, 732 960.448 C 732 959.154, 738.556 946.207, 741.179 942.320 C 742.731 940.021, 744 937.849, 744 937.494 C 744 935.218, 762.883 912.827, 771.223 905.214 C 774.665 902.071, 777.974 899.050, 778.576 898.500 C 786.381 891.363, 809.291 877.454, 820.750 872.895 C 821.987 872.403, 824.013 871.580, 825.250 871.066 C 826.487 870.552, 829.300 869.590, 831.500 868.928 C 833.700 868.265, 836.400 867.377, 837.500 866.954 C 843.398 864.687, 858.171 862.007, 865.500 861.873 C 868.800 861.813, 872.037 861.334, 872.693 860.807 C 873.805 859.914, 879.636 860.061, 897.603 861.434 C 903.871 861.913, 909.254 862.830, 924.537 866.018 C 926.758 866.481, 933.427 868.467, 939.358 870.430 C 945.289 872.394, 950.972 874, 951.987 874 C 953.003 874, 953.990 874.469, 954.180 875.041 C 954.810 876.931, 960.807 873.048, 963.198 869.203 L 965.500 865.500 966.241 775 C 966.649 725.225, 967.228 674.502, 967.528 662.283 C 968.041 641.414, 967.952 639.827, 966.068 636.133 C 964.965 633.971, 962.533 631.256, 960.663 630.101 C 957.274 628.006, 956.986 628, 865.498 628 C 798.105 628, 772.639 627.687, 769.616 626.823 C 763.708 625.133, 756.284 619.444, 753.713 614.638 C 751.857 611.168, 751.510 608.966, 751.561 601 C 751.620 591.803, 751.761 591.229, 755.985 583 C 758.385 578.325, 762.006 572.025, 764.032 569 C 768.695 562.040, 776 546.989, 776 544.344 C 776 543.238, 776.322 542.012, 776.715 541.618 C 778.007 540.326, 779.911 531.593, 779.956 526.750 C 779.980 524.138, 780.450 522, 781 522 C 781.630 522, 782 515.333, 782 504 C 782 492.667, 781.630 486, 781 486 C 780.450 486, 780 484.002, 780 481.559 C 780 479.116, 779.550 476.840, 779 476.500 C 778.450 476.160, 777.993 474.896, 777.985 473.691 C 777.969 471.299, 775.783 464.449, 774.685 463.352 C 774.308 462.975, 774 461.875, 774 460.907 C 774 459.288, 766.375 443.146, 765.070 442 C 764.756 441.725, 762.949 439.250, 761.053 436.500 C 753.886 426.106, 743.464 415.014, 732.534 406.149 C 724.747 399.833, 701.298 388, 696.570 388 C 695.221 388, 693.872 387.602, 693.571 387.115 C 693.271 386.629, 691.781 386.001, 690.262 385.719 C 688.743 385.438, 683.675 384.476, 679 383.581 C 670.135 381.884, 643.032 381.574, 638 383.112 M 1011.878 629.599 C 1004.511 633.497, 1002.535 642.958, 1004.988 662.591 C 1005.532 666.941, 1006.251 702.900, 1006.587 742.500 C 1006.923 782.100, 1007.399 833.625, 1007.647 857 C 1007.982 888.737, 1007.787 900.513, 1006.874 903.500 C 1004.336 911.811, 995.690 920.327, 987 923.076 C 981.624 924.777, 963.277 924.953, 959.850 923.337 C 958.558 922.727, 955.475 921.642, 953 920.926 C 948.738 919.693, 944.961 918.145, 932.721 912.615 C 925.337 909.278, 918.726 907.124, 913.750 906.434 C 911.412 906.110, 908.600 905.469, 907.500 905.011 C 901.464 902.495, 868.826 900.854, 867.500 903 C 867.160 903.550, 865.130 904, 862.988 904 C 860.846 904, 858.060 904.403, 856.797 904.896 C 855.534 905.389, 852.475 906.347, 850 907.025 C 847.525 907.704, 844.150 908.839, 842.500 909.547 C 840.850 910.256, 837.475 911.622, 835 912.584 C 832.525 913.545, 829.306 915.157, 827.846 916.166 C 826.386 917.175, 824.865 918, 824.467 918 C 822.335 918, 807.285 929.556, 799.150 937.439 C 786.705 949.500, 781.074 957.118, 773.974 971.500 C 767.897 983.810, 765.074 992.087, 764.252 1000 C 763.996 1002.475, 763.359 1005.026, 762.837 1005.669 C 761.716 1007.053, 761.866 1041.035, 763 1042.500 C 763.426 1043.050, 764.033 1045.300, 764.349 1047.500 C 765.584 1056.104, 766.256 1059.040, 767.110 1059.568 C 767.600 1059.871, 768 1061.123, 768 1062.352 C 768 1065.875, 779.798 1088.883, 784.731 1094.980 C 789.735 1101.165, 799.940 1111.811, 805.623 1116.776 C 819.609 1128.997, 845.577 1140.975, 861.118 1142.375 C 863.288 1142.570, 865.349 1143.016, 865.698 1143.365 C 866.048 1143.714, 872.708 1144, 880.500 1144 C 893.742 1144, 903.816 1142.922, 908.500 1141.004 C 909.600 1140.554, 912.750 1139.651, 915.500 1138.997 C 920.827 1137.731, 924.949 1136.439, 929 1134.765 C 930.375 1134.197, 932.400 1133.388, 933.500 1132.967 C 934.600 1132.546, 940 1130.076, 945.500 1127.479 C 962.215 1119.586, 967.208 1118, 975.336 1118 C 981.084 1118, 983.734 1118.534, 987.865 1120.528 C 993.636 1123.312, 1002 1130.471, 1002 1132.627 C 1002 1133.382, 1002.352 1134, 1002.782 1134 C 1006.052 1134, 1006.497 1150.117, 1007.644 1310.250 C 1007.998 1359.612, 1008.672 1400, 1009.143 1400 C 1009.615 1400, 1010 1400.735, 1010 1401.634 C 1010 1403.510, 1014.406 1407.703, 1017.815 1409.071 C 1019.188 1409.622, 1061.629 1410, 1122.081 1410 C 1200.789 1410, 1224.966 1410.285, 1228.129 1411.250 C 1233.293 1412.825, 1241.010 1421.043, 1242.750 1426.819 C 1244.608 1432.987, 1244.304 1440.468, 1242 1445.236 C 1240.900 1447.513, 1240 1449.966, 1240 1450.688 C 1240 1451.410, 1239.550 1452, 1239 1452 C 1238.450 1452, 1238 1452.457, 1238 1453.015 C 1238 1453.574, 1235.750 1457.124, 1233 1460.905 C 1230.250 1464.686, 1228 1468.242, 1228 1468.806 C 1228 1469.371, 1227.617 1469.983, 1227.149 1470.167 C 1225.679 1470.743, 1218.295 1487.249, 1216.935 1493 C 1216.220 1496.025, 1215.267 1498.927, 1214.817 1499.450 C 1214.368 1499.972, 1214 1502.308, 1214 1504.641 C 1214 1506.974, 1213.609 1509.124, 1213.131 1509.419 C 1212.088 1510.064, 1211.595 1540.535, 1212.601 1542.163 C 1212.987 1542.788, 1213.436 1544.920, 1213.598 1546.900 C 1214.059 1552.544, 1216.197 1562.004, 1217.143 1562.588 C 1217.614 1562.880, 1218 1563.998, 1218 1565.073 C 1218 1566.148, 1218.432 1567.809, 1218.960 1568.764 C 1219.487 1569.719, 1221.375 1573.650, 1223.153 1577.500 C 1233.862 1600.681, 1258.365 1623.694, 1282.209 1632.966 C 1286.769 1634.740, 1291.400 1636.564, 1292.500 1637.020 C 1294.587 1637.885, 1295.694 1638.140, 1308 1640.591 C 1318.519 1642.687, 1338.469 1642.673, 1349 1640.563 C 1353.675 1639.626, 1358.743 1638.615, 1360.262 1638.315 C 1361.781 1638.015, 1363.271 1637.371, 1363.571 1636.885 C 1363.872 1636.398, 1365.055 1636, 1366.200 1636 C 1369.902 1636, 1389.257 1625.893, 1397.491 1619.660 C 1404.653 1614.239, 1419 1600.409, 1419 1598.926 C 1419 1598.609, 1420.912 1595.881, 1423.250 1592.863 C 1426.879 1588.179, 1428.842 1584.698, 1435.153 1571.764 C 1435.619 1570.809, 1436 1569.121, 1436 1568.014 C 1436 1566.906, 1436.450 1566, 1437 1566 C 1437.550 1566, 1438 1564.902, 1438 1563.559 C 1438 1562.216, 1438.450 1560.840, 1439 1560.500 C 1439.550 1560.160, 1440 1558.109, 1440 1555.941 C 1440 1553.773, 1440.450 1552, 1441 1552 C 1441.550 1552, 1442 1549.615, 1442 1546.700 C 1442 1543.785, 1442.477 1540.923, 1443.061 1540.339 C 1444.312 1539.088, 1443.724 1518.668, 1442.173 1509.500 C 1438.766 1489.349, 1434.457 1478.757, 1422.243 1460.500 C 1418.195 1454.450, 1414.628 1448.263, 1414.317 1446.750 C 1414.005 1445.237, 1413.356 1444, 1412.875 1444 C 1411.411 1444, 1411.864 1427.570, 1413.432 1423.818 C 1415.168 1419.662, 1421.952 1412.885, 1425.739 1411.523 C 1427.455 1410.906, 1467.862 1410.288, 1532.500 1409.892 C 1640.642 1409.228, 1648.197 1408.920, 1658 1404.776 C 1671.246 1399.178, 1676.554 1392.297, 1683.424 1371.824 L 1686 1364.147 1686.015 1248.324 C 1686.031 1127.262, 1685.925 1130.440, 1690.220 1122.429 C 1692.802 1117.613, 1698.776 1112.387, 1703.335 1110.958 C 1705.626 1110.240, 1707.927 1109.280, 1708.450 1108.826 C 1709.874 1107.588, 1715.847 1107.850, 1721.694 1109.407 C 1726.776 1110.760, 1733.488 1114.325, 1741.500 1119.926 C 1750.620 1126.303, 1759.005 1129.765, 1771.040 1132.124 C 1778.617 1133.610, 1805.324 1133.693, 1812 1132.252 C 1815.025 1131.599, 1818.968 1130.774, 1820.762 1130.417 C 1822.556 1130.061, 1824.271 1129.371, 1824.571 1128.885 C 1824.872 1128.398, 1825.982 1128, 1827.038 1128 C 1828.719 1128, 1848.677 1118.453, 1850 1117.016 C 1850.275 1116.717, 1852.975 1114.782, 1856 1112.715 C 1862.045 1108.585, 1874.655 1096.940, 1877.348 1093 C 1878.288 1091.625, 1880.392 1088.700, 1882.024 1086.500 C 1884.497 1083.165, 1887.576 1077.366, 1895.156 1061.764 C 1895.620 1060.809, 1896 1059.340, 1896 1058.500 C 1896 1057.660, 1896.410 1056.191, 1896.912 1055.236 C 1899.353 1050.586, 1900.500 1040.541, 1900.500 1023.800 C 1900.500 1010.973, 1900.156 1005.756, 1899.250 1004.850 C 1898.563 1004.162, 1898 1002.451, 1898 1001.046 C 1898 999.641, 1896.873 995.384, 1895.495 991.585 C 1887.653 969.965, 1875.650 953.570, 1858 940.370 C 1841.174 927.787, 1826.467 921.808, 1805.376 918.976 C 1793.833 917.426, 1770.025 918.764, 1767.550 921.102 C 1767.028 921.596, 1765.602 922, 1764.383 922 C 1760.044 922, 1746.413 928.550, 1741.500 932.996 C 1737.265 936.828, 1730.327 941.366, 1724.559 944.077 C 1720.842 945.825, 1718.001 946.369, 1713.011 946.292 C 1705.290 946.173, 1701.032 944.577, 1695.500 939.727 C 1691.861 936.536, 1690.694 934.761, 1687.133 927 C 1686.296 925.175, 1685.887 890.326, 1685.618 798 C 1685.415 728.425, 1684.923 669.362, 1684.524 666.750 C 1684.125 664.138, 1683.394 662, 1682.899 662 C 1682.405 662, 1682 660.836, 1682 659.414 C 1682 655.068, 1675.795 643.798, 1670.385 638.320 C 1664.547 632.407, 1659.643 630, 1653.437 630 C 1651.062 630, 1648.840 629.550, 1648.500 629 C 1648.094 628.343, 1609.640 628, 1536.391 628 C 1439.061 628, 1424.531 628.191, 1421.989 629.506 C 1418.452 631.335, 1414 638.609, 1414 642.559 C 1414 646.511, 1416.278 656, 1417.227 656 C 1417.652 656, 1418 656.662, 1418 657.470 C 1418 658.874, 1419.829 663.224, 1426.002 676.500 C 1428.614 682.117, 1431.461 688.472, 1434.514 695.500 C 1435.231 697.150, 1436.109 699.850, 1436.465 701.500 C 1436.822 703.150, 1437.746 707.425, 1438.520 711 C 1440.192 718.726, 1440.582 752, 1439 752 C 1438.450 752, 1438 753.508, 1438 755.351 C 1438 758.484, 1436.935 762.817, 1435.015 767.500 C 1434.564 768.600, 1433.198 772.090, 1431.979 775.256 C 1430.010 780.369, 1426.273 787.674, 1421.179 796.364 C 1416.717 803.976, 1405.170 816.023, 1395.270 823.395 C 1387.976 828.826, 1374.064 836.666, 1367 839.326 C 1357.356 842.958, 1354.203 843.788, 1345.678 844.942 C 1335.433 846.328, 1314.217 846.295, 1306.560 844.881 C 1292.172 842.224, 1276.052 835.759, 1262.965 827.397 C 1254.896 822.242, 1242.031 810.666, 1236.962 804 C 1234.244 800.425, 1231.565 796.956, 1231.010 796.292 C 1230.454 795.628, 1230 794.809, 1230 794.472 C 1230 794.136, 1228.650 791.898, 1227 789.500 C 1225.350 787.102, 1224 784.433, 1224 783.570 C 1224 782.706, 1223.640 782, 1223.201 782 C 1222.761 782, 1221.824 780.313, 1221.118 778.250 C 1220.412 776.188, 1219.125 772.932, 1218.259 771.015 C 1216.563 767.264, 1215.127 762.298, 1214.350 757.500 C 1214.082 755.850, 1213.423 753.591, 1212.885 752.479 C 1212.306 751.282, 1212.092 743.332, 1212.361 732.979 C 1212.829 714.909, 1213.519 706.947, 1214.914 703.500 C 1215.359 702.400, 1216.265 699.700, 1216.928 697.500 C 1219.267 689.732, 1222.694 682.517, 1229.992 670 C 1238.431 655.523, 1240 651.243, 1240 642.690 C 1240 636.860, 1239.310 635.442, 1234.010 630.379 L 1231.520 628 1123.010 628.106 C 1032.561 628.195, 1014.064 628.443, 1011.878 629.599" stroke="none" fill="#fbfbfb" fill-rule="evenodd"/><path d="M 0 1024 L 0 2048.001 1024.250 2047.750 L 2048.500 2047.500 2048.750 1023.750 L 2049.001 0 1024.500 0 L 0 0 0 1024 M 0.498 1024.500 C 0.498 1587.700, 0.611 1817.950, 0.750 1536.167 C 0.889 1254.384, 0.889 793.584, 0.750 512.167 C 0.611 230.750, 0.498 461.300, 0.498 1024.500 M 638 383.112 C 636.625 383.532, 632.800 384.423, 629.500 385.092 C 623.919 386.224, 610.760 390.635, 605 393.304 C 602.300 394.555, 597.633 397.354, 589.065 402.860 C 577.391 410.362, 561.643 426.252, 555.477 436.750 C 554.428 438.538, 553.216 440, 552.784 440 C 552.353 440, 552 440.863, 552 441.917 C 552 442.971, 551.663 443.983, 551.250 444.167 C 550.157 444.653, 544 456.883, 544 458.568 C 544 459.356, 543.602 460, 543.117 460 C 542.631 460, 541.988 461.012, 541.687 462.250 C 541.387 463.488, 540.151 467.875, 538.940 472 C 537.729 476.125, 536.307 482.200, 535.780 485.500 C 534.507 493.462, 533.695 512.795, 534.547 514.861 C 534.919 515.762, 535.342 518.975, 535.487 522 C 535.632 525.025, 536.293 529.525, 536.955 532 C 537.617 534.475, 538.625 538.300, 539.195 540.500 C 541.664 550.024, 545.431 558.701, 550.917 567.500 C 552.975 570.800, 555.899 576.200, 557.416 579.500 C 558.933 582.800, 560.585 586.281, 561.087 587.236 C 561.589 588.191, 562 590.083, 562 591.439 C 562 592.796, 562.534 595.079, 563.188 596.513 C 565.680 601.983, 560.091 618.276, 554.739 621.140 C 553.530 621.787, 551.938 622.919, 551.201 623.656 C 550.463 624.394, 548.654 625.258, 547.180 625.576 C 545.706 625.895, 543.600 626.575, 542.500 627.089 C 541.313 627.642, 493.140 628.171, 424 628.389 C 359.925 628.592, 305.065 629.085, 302.089 629.486 C 299.113 629.887, 295.162 631.066, 293.309 632.107 C 291.456 633.148, 289.361 634, 288.654 634 C 286.563 634, 278.475 642.711, 275.512 648.156 C 269.639 658.945, 270.025 633.223, 270.012 1015.201 C 270.001 1324.091, 270.182 1367.601, 271.495 1372.642 C 275.856 1389.385, 286.312 1401.487, 301.883 1407.813 L 307.267 1410 630.229 1410 L 953.191 1410 956.346 1407.783 C 960.810 1404.645, 962 1403.355, 962 1401.655 C 962 1400.836, 962.391 1400.017, 962.868 1399.833 C 963.831 1399.463, 964.765 1347.678, 965.629 1246.795 L 966.201 1180.091 964.061 1177.085 C 962.883 1175.432, 960.590 1173.132, 958.963 1171.974 L 956.006 1169.868 949.753 1172 C 946.314 1173.172, 942.600 1174.506, 941.500 1174.965 C 936.676 1176.975, 922.851 1181.001, 914.500 1182.828 C 890.720 1188.029, 850.881 1186.120, 833.500 1178.947 C 832.400 1178.493, 828.575 1177.106, 825 1175.865 C 806.018 1169.275, 781.265 1152.970, 765.457 1136.643 C 750.445 1121.138, 737.413 1100.824, 730.081 1081.500 C 727.422 1074.490, 726.650 1072.497, 725.125 1068.703 C 724.506 1067.165, 724 1064.667, 724 1063.153 C 724 1061.639, 723.577 1059.972, 723.060 1059.450 C 722.542 1058.927, 721.822 1056.025, 721.460 1053 C 718.841 1031.160, 718.406 1016.548, 720.059 1006 C 720.619 1002.425, 721.348 996.913, 721.678 993.750 C 722.008 990.588, 722.665 988, 723.139 988 C 723.612 988, 724 986.567, 724 984.817 C 724 981.505, 726.780 972.568, 730.084 965.261 C 731.138 962.929, 732 960.764, 732 960.448 C 732 959.154, 738.556 946.207, 741.179 942.320 C 742.731 940.021, 744 937.849, 744 937.494 C 744 935.218, 762.883 912.827, 771.223 905.214 C 774.665 902.071, 777.974 899.050, 778.576 898.500 C 786.381 891.363, 809.291 877.454, 820.750 872.895 C 821.987 872.403, 824.013 871.580, 825.250 871.066 C 826.487 870.552, 829.300 869.590, 831.500 868.928 C 833.700 868.265, 836.400 867.377, 837.500 866.954 C 843.398 864.687, 858.171 862.007, 865.500 861.873 C 868.800 861.813, 872.037 861.334, 872.693 860.807 C 873.805 859.914, 879.636 860.061, 897.603 861.434 C 903.871 861.913, 909.254 862.830, 924.537 866.018 C 926.758 866.481, 933.427 868.467, 939.358 870.430 C 945.289 872.394, 950.972 874, 951.987 874 C 953.003 874, 953.990 874.469, 954.180 875.041 C 954.810 876.931, 960.807 873.048, 963.198 869.203 L 965.500 865.500 966.241 775 C 966.649 725.225, 967.228 674.502, 967.528 662.283 C 968.041 641.414, 967.952 639.827, 966.068 636.133 C 964.965 633.971, 962.533 631.256, 960.663 630.101 C 957.274 628.006, 956.986 628, 865.498 628 C 798.105 628, 772.639 627.687, 769.616 626.823 C 763.708 625.133, 756.284 619.444, 753.713 614.638 C 751.857 611.168, 751.510 608.966, 751.561 601 C 751.620 591.803, 751.761 591.229, 755.985 583 C 758.385 578.325, 762.006 572.025, 764.032 569 C 768.695 562.040, 776 546.989, 776 544.344 C 776 543.238, 776.322 542.012, 776.715 541.618 C 778.007 540.326, 779.911 531.593, 779.956 526.750 C 779.980 524.138, 780.450 522, 781 522 C 781.630 522, 782 515.333, 782 504 C 782 492.667, 781.630 486, 781 486 C 780.450 486, 780 484.002, 780 481.559 C 780 479.116, 779.550 476.840, 779 476.500 C 778.450 476.160, 777.993 474.896, 777.985 473.691 C 777.969 471.299, 775.783 464.449, 774.685 463.352 C 774.308 462.975, 774 461.875, 774 460.907 C 774 459.288, 766.375 443.146, 765.070 442 C 764.756 441.725, 762.949 439.250, 761.053 436.500 C 753.886 426.106, 743.464 415.014, 732.534 406.149 C 724.747 399.833, 701.298 388, 696.570 388 C 695.221 388, 693.872 387.602, 693.571 387.115 C 693.271 386.629, 691.781 386.001, 690.262 385.719 C 688.743 385.438, 683.675 384.476, 679 383.581 C 670.135 381.884, 643.032 381.574, 638 383.112 M 1011.878 629.599 C 1004.511 633.497, 1002.535 642.958, 1004.988 662.591 C 1005.532 666.941, 1006.251 702.900, 1006.587 742.500 C 1006.923 782.100, 1007.399 833.625, 1007.647 857 C 1007.982 888.737, 1007.787 900.513, 1006.874 903.500 C 1004.336 911.811, 995.690 920.327, 987 923.076 C 981.624 924.777, 963.277 924.953, 959.850 923.337 C 958.558 922.727, 955.475 921.642, 953 920.926 C 948.738 919.693, 944.961 918.145, 932.721 912.615 C 925.337 909.278, 918.726 907.124, 913.750 906.434 C 911.412 906.110, 908.600 905.469, 907.500 905.011 C 901.464 902.495, 868.826 900.854, 867.500 903 C 867.160 903.550, 865.130 904, 862.988 904 C 860.846 904, 858.060 904.403, 856.797 904.896 C 855.534 905.389, 852.475 906.347, 850 907.025 C 847.525 907.704, 844.150 908.839, 842.500 909.547 C 840.850 910.256, 837.475 911.622, 835 912.584 C 832.525 913.545, 829.306 915.157, 827.846 916.166 C 826.386 917.175, 824.865 918, 824.467 918 C 822.335 918, 807.285 929.556, 799.150 937.439 C 786.705 949.500, 781.074 957.118, 773.974 971.500 C 767.897 983.810, 765.074 992.087, 764.252 1000 C 763.996 1002.475, 763.359 1005.026, 762.837 1005.669 C 761.716 1007.053, 761.866 1041.035, 763 1042.500 C 763.426 1043.050, 764.033 1045.300, 764.349 1047.500 C 765.584 1056.104, 766.256 1059.040, 767.110 1059.568 C 767.600 1059.871, 768 1061.123, 768 1062.352 C 768 1065.875, 779.798 1088.883, 784.731 1094.980 C 789.735 1101.165, 799.940 1111.811, 805.623 1116.776 C 819.609 1128.997, 845.577 1140.975, 861.118 1142.375 C 863.288 1142.570, 865.349 1143.016, 865.698 1143.365 C 866.048 1143.714, 872.708 1144, 880.500 1144 C 893.742 1144, 903.816 1142.922, 908.500 1141.004 C 909.600 1140.554, 912.750 1139.651, 915.500 1138.997 C 920.827 1137.731, 924.949 1136.439, 929 1134.765 C 930.375 1134.197, 932.400 1133.388, 933.500 1132.967 C 934.600 1132.546, 940 1130.076, 945.500 1127.479 C 962.215 1119.586, 967.208 1118, 975.336 1118 C 981.084 1118, 983.734 1118.534, 987.865 1120.528 C 993.636 1123.312, 1002 1130.471, 1002 1132.627 C 1002 1133.382, 1002.352 1134, 1002.782 1134 C 1006.052 1134, 1006.497 1150.117, 1007.644 1310.250 C 1007.998 1359.612, 1008.672 1400, 1009.143 1400 C 1009.615 1400, 1010 1400.735, 1010 1401.634 C 1010 1403.510, 1014.406 1407.703, 1017.815 1409.071 C 1019.188 1409.622, 1061.629 1410, 1122.081 1410 C 1200.789 1410, 1224.966 1410.285, 1228.129 1411.250 C 1233.293 1412.825, 1241.010 1421.043, 1242.750 1426.819 C 1244.608 1432.987, 1244.304 1440.468, 1242 1445.236 C 1240.900 1447.513, 1240 1449.966, 1240 1450.688 C 1240 1451.410, 1239.550 1452, 1239 1452 C 1238.450 1452, 1238 1452.457, 1238 1453.015 C 1238 1453.574, 1235.750 1457.124, 1233 1460.905 C 1230.250 1464.686, 1228 1468.242, 1228 1468.806 C 1228 1469.371, 1227.617 1469.983, 1227.149 1470.167 C 1225.679 1470.743, 1218.295 1487.249, 1216.935 1493 C 1216.220 1496.025, 1215.267 1498.927, 1214.817 1499.450 C 1214.368 1499.972, 1214 1502.308, 1214 1504.641 C 1214 1506.974, 1213.609 1509.124, 1213.131 1509.419 C 1212.088 1510.064, 1211.595 1540.535, 1212.601 1542.163 C 1212.987 1542.788, 1213.436 1544.920, 1213.598 1546.900 C 1214.059 1552.544, 1216.197 1562.004, 1217.143 1562.588 C 1217.614 1562.880, 1218 1563.998, 1218 1565.073 C 1218 1566.148, 1218.432 1567.809, 1218.960 1568.764 C 1219.487 1569.719, 1221.375 1573.650, 1223.153 1577.500 C 1233.862 1600.681, 1258.365 1623.694, 1282.209 1632.966 C 1286.769 1634.740, 1291.400 1636.564, 1292.500 1637.020 C 1294.587 1637.885, 1295.694 1638.140, 1308 1640.591 C 1318.519 1642.687, 1338.469 1642.673, 1349 1640.563 C 1353.675 1639.626, 1358.743 1638.615, 1360.262 1638.315 C 1361.781 1638.015, 1363.271 1637.371, 1363.571 1636.885 C 1363.872 1636.398, 1365.055 1636, 1366.200 1636 C 1369.902 1636, 1389.257 1625.893, 1397.491 1619.660 C 1404.653 1614.239, 1419 1600.409, 1419 1598.926 C 1419 1598.609, 1420.912 1595.881, 1423.250 1592.863 C 1426.879 1588.179, 1428.842 1584.698, 1435.153 1571.764 C 1435.619 1570.809, 1436 1569.121, 1436 1568.014 C 1436 1566.906, 1436.450 1566, 1437 1566 C 1437.550 1566, 1438 1564.902, 1438 1563.559 C 1438 1562.216, 1438.450 1560.840, 1439 1560.500 C 1439.550 1560.160, 1440 1558.109, 1440 1555.941 C 1440 1553.773, 1440.450 1552, 1441 1552 C 1441.550 1552, 1442 1549.615, 1442 1546.700 C 1442 1543.785, 1442.477 1540.923, 1443.061 1540.339 C 1444.312 1539.088, 1443.724 1518.668, 1442.173 1509.500 C 1438.766 1489.349, 1434.457 1478.757, 1422.243 1460.500 C 1418.195 1454.450, 1414.628 1448.263, 1414.317 1446.750 C 1414.005 1445.237, 1413.356 1444, 1412.875 1444 C 1411.411 1444, 1411.864 1427.570, 1413.432 1423.818 C 1415.168 1419.662, 1421.952 1412.885, 1425.739 1411.523 C 1427.455 1410.906, 1467.862 1410.288, 1532.500 1409.892 C 1640.642 1409.228, 1648.197 1408.920, 1658 1404.776 C 1671.246 1399.178, 1676.554 1392.297, 1683.424 1371.824 L 1686 1364.147 1686.015 1248.324 C 1686.031 1127.262, 1685.925 1130.440, 1690.220 1122.429 C 1692.802 1117.613, 1698.776 1112.387, 1703.335 1110.958 C 1705.626 1110.240, 1707.927 1109.280, 1708.450 1108.826 C 1709.874 1107.588, 1715.847 1107.850, 1721.694 1109.407 C 1726.776 1110.760, 1733.488 1114.325, 1741.500 1119.926 C 1750.620 1126.303, 1759.005 1129.765, 1771.040 1132.124 C 1778.617 1133.610, 1805.324 1133.693, 1812 1132.252 C 1815.025 1131.599, 1818.968 1130.774, 1820.762 1130.417 C 1822.556 1130.061, 1824.271 1129.371, 1824.571 1128.885 C 1824.872 1128.398, 1825.982 1128, 1827.038 1128 C 1828.719 1128, 1848.677 1118.453, 1850 1117.016 C 1850.275 1116.717, 1852.975 1114.782, 1856 1112.715 C 1862.045 1108.585, 1874.655 1096.940, 1877.348 1093 C 1878.288 1091.625, 1880.392 1088.700, 1882.024 1086.500 C 1884.497 1083.165, 1887.576 1077.366, 1895.156 1061.764 C 1895.620 1060.809, 1896 1059.340, 1896 1058.500 C 1896 1057.660, 1896.410 1056.191, 1896.912 1055.236 C 1899.353 1050.586, 1900.500 1040.541, 1900.500 1023.800 C 1900.500 1010.973, 1900.156 1005.756, 1899.250 1004.850 C 1898.563 1004.162, 1898 1002.451, 1898 1001.046 C 1898 999.641, 1896.873 995.384, 1895.495 991.585 C 1887.653 969.965, 1875.650 953.570, 1858 940.370 C 1841.174 927.787, 1826.467 921.808, 1805.376 918.976 C 1793.833 917.426, 1770.025 918.764, 1767.550 921.102 C 1767.028 921.596, 1765.602 922, 1764.383 922 C 1760.044 922, 1746.413 928.550, 1741.500 932.996 C 1737.265 936.828, 1730.327 941.366, 1724.559 944.077 C 1720.842 945.825, 1718.001 946.369, 1713.011 946.292 C 1705.290 946.173, 1701.032 944.577, 1695.500 939.727 C 1691.861 936.536, 1690.694 934.761, 1687.133 927 C 1686.296 925.175, 1685.887 890.326, 1685.618 798 C 1685.415 728.425, 1684.923 669.362, 1684.524 666.750 C 1684.125 664.138, 1683.394 662, 1682.899 662 C 1682.405 662, 1682 660.836, 1682 659.414 C 1682 655.068, 1675.795 643.798, 1670.385 638.320 C 1664.547 632.407, 1659.643 630, 1653.437 630 C 1651.062 630, 1648.840 629.550, 1648.500 629 C 1648.094 628.343, 1609.640 628, 1536.391 628 C 1439.061 628, 1424.531 628.191, 1421.989 629.506 C 1418.452 631.335, 1414 638.609, 1414 642.559 C 1414 646.511, 1416.278 656, 1417.227 656 C 1417.652 656, 1418 656.662, 1418 657.470 C 1418 658.874, 1419.829 663.224, 1426.002 676.500 C 1428.614 682.117, 1431.461 688.472, 1434.514 695.500 C 1435.231 697.150, 1436.109 699.850, 1436.465 701.500 C 1436.822 703.150, 1437.746 707.425, 1438.520 711 C 1440.192 718.726, 1440.582 752, 1439 752 C 1438.450 752, 1438 753.508, 1438 755.351 C 1438 758.484, 1436.935 762.817, 1435.015 767.500 C 1434.564 768.600, 1433.198 772.090, 1431.979 775.256 C 1430.010 780.369, 1426.273 787.674, 1421.179 796.364 C 1416.717 803.976, 1405.170 816.023, 1395.270 823.395 C 1387.976 828.826, 1374.064 836.666, 1367 839.326 C 1357.356 842.958, 1354.203 843.788, 1345.678 844.942 C 1335.433 846.328, 1314.217 846.295, 1306.560 844.881 C 1292.172 842.224, 1276.052 835.759, 1262.965 827.397 C 1254.896 822.242, 1242.031 810.666, 1236.962 804 C 1234.244 800.425, 1231.565 796.956, 1231.010 796.292 C 1230.454 795.628, 1230 794.809, 1230 794.472 C 1230 794.136, 1228.650 791.898, 1227 789.500 C 1225.350 787.102, 1224 784.433, 1224 783.570 C 1224 782.706, 1223.640 782, 1223.201 782 C 1222.761 782, 1221.824 780.313, 1221.118 778.250 C 1220.412 776.188, 1219.125 772.932, 1218.259 771.015 C 1216.563 767.264, 1215.127 762.298, 1214.350 757.500 C 1214.082 755.850, 1213.423 753.591, 1212.885 752.479 C 1212.306 751.282, 1212.092 743.332, 1212.361 732.979 C 1212.829 714.909, 1213.519 706.947, 1214.914 703.500 C 1215.359 702.400, 1216.265 699.700, 1216.928 697.500 C 1219.267 689.732, 1222.694 682.517, 1229.992 670 C 1238.431 655.523, 1240 651.243, 1240 642.690 C 1240 636.860, 1239.310 635.442, 1234.010 630.379 L 1231.520 628 1123.010 628.106 C 1032.561 628.195, 1014.064 628.443, 1011.878 629.599" stroke="none" fill="#049bf4" fill-rule="evenodd"/></svg>