<svg xmlns="http://www.w3.org/2000/svg" width="1024" height="1024" viewBox="0 0 1024 1024" version="1.1"><path d="M 308 185.571 C 299.019 187.921, 286.999 194.400, 280.199 200.556 C 272.199 207.798, 266.619 216.016, 262.682 226.354 C 259.780 233.976, 259.578 235.369, 259.540 248 C 259.491 264.433, 260.666 268.830, 268.639 282.049 C 275.542 293.496, 276.502 298.536, 272.819 304 C 267.930 311.254, 270.474 310.997, 203.616 310.998 C 161.066 311, 142.611 311.336, 139.858 312.161 C 134.664 313.717, 128.645 319.037, 126.077 324.341 C 123.979 328.676, 123.979 328.676, 124.239 509.166 C 124.500 689.657, 124.500 689.657, 127.526 694.552 C 129.402 697.586, 132.414 700.598, 135.448 702.474 C 140.343 705.500, 140.343 705.500, 308.106 705.759 C 475.868 706.017, 475.868 706.017, 478.684 703.596 C 481.500 701.174, 481.500 701.174, 481.784 647.463 C 482.033 600.216, 481.880 593.466, 480.511 591.376 C 478.414 588.175, 474.903 588.296, 463.455 591.964 C 434.807 601.140, 408.511 596.602, 385.778 578.557 C 373.482 568.797, 361.509 549.890, 357.560 534 C 344.919 483.130, 381.728 432.092, 433.075 429.295 C 444.872 428.652, 456.897 430.040, 465.661 433.055 C 475.214 436.342, 480.152 435.292, 481.533 429.680 C 481.829 428.481, 481.942 402.448, 481.785 371.830 C 481.500 316.160, 481.500 316.160, 479.076 313.580 C 476.651 311, 476.651 311, 429.060 311 C 374.888 311, 376.522 311.232, 372.193 302.926 C 369.126 297.040, 369.849 292.215, 374.880 285 C 383.770 272.249, 387.269 261.965, 387.290 248.520 C 387.329 223.412, 373.088 200.780, 350.452 189.977 C 338.436 184.242, 320.279 182.358, 308 185.571 M 504.861 312.911 C 502.500 314.822, 502.500 314.822, 502 383.339 C 501.509 450.664, 501.464 451.904, 499.429 454.678 C 493.709 462.473, 484.084 462.863, 466 456.030 C 455.286 451.983, 453.678 451.655, 442.467 451.229 C 428.374 450.695, 421.588 452.038, 410 457.657 C 400.676 462.177, 388.160 474.343, 383.221 483.686 C 374.002 501.125, 373.785 522.249, 382.638 540.533 C 393.041 562.020, 413.672 574.970, 437.500 574.970 C 448.244 574.970, 456.484 572.873, 468.750 567.017 C 474.388 564.325, 481.044 561.816, 483.542 561.441 C 489.520 560.545, 496.181 563.043, 499.237 567.328 C 501.500 570.500, 501.500 570.500, 502 635.670 C 502.500 700.840, 502.500 700.840, 504.924 703.420 C 507.349 706, 507.349 706, 560.924 706.022 C 611.393 706.043, 614.743 706.154, 618.684 707.943 C 627.879 712.118, 628.408 721.067, 620.174 733.149 C 611.738 745.529, 609.030 753.750, 609.012 767.040 C 609.005 771.737, 609.685 778.262, 610.522 781.540 C 615.307 800.284, 629.660 815.928, 647.810 822.182 C 656.692 825.243, 674.583 825.471, 683 822.630 C 709.586 813.657, 726.667 789.039, 724.661 762.586 C 723.718 750.157, 720.282 741.274, 711.988 729.825 C 705.913 721.439, 707.469 711.508, 715.424 707.895 C 719.227 706.168, 723.149 706.041, 774 706 C 826.640 705.958, 828.654 705.887, 833 703.919 C 838.548 701.408, 842.516 697.736, 845.342 692.500 C 847.470 688.556, 847.507 687.639, 848 626.500 C 848.552 558.096, 848.151 561.970, 855.080 558.075 C 860.624 554.959, 865.396 555.415, 874.788 559.957 C 886.279 565.514, 892.024 567.002, 901.932 566.988 C 917.605 566.966, 929.990 561.859, 941.217 550.786 C 951.857 540.293, 956.951 528.059, 956.951 513 C 956.951 503.404, 955.746 498.292, 951.294 489 C 941.550 468.664, 918.647 455.930, 897.270 458.962 C 888.535 460.201, 883.859 461.882, 873.607 467.470 C 867.675 470.704, 864.152 472, 861.296 472 C 856.082 472, 850.871 468.508, 849.306 463.965 C 848.432 461.428, 848.092 442.965, 848.034 395 C 847.946 321.387, 848.349 325.438, 840.369 317.793 C 833.166 310.892, 834.274 311, 770.874 311 C 714 311, 714 311, 714 317.830 C 714 323.907, 714.496 325.666, 718.502 333.787 C 724.008 344.951, 725.966 352.866, 725.985 364.040 C 726.019 383.412, 717.421 400.176, 701.697 411.397 C 693.688 417.112, 688.042 419.525, 677.849 421.591 C 638.242 429.616, 600.166 392.054, 608.397 353.077 C 609.259 348.994, 612.223 340.876, 614.982 335.037 C 619.453 325.579, 620 323.689, 620 317.711 C 620 311, 620 311, 563.611 311 C 509.585 311, 507.123 311.080, 504.861 312.911" stroke="none" fill="#FFFFFF" fill-rule="evenodd"/></svg>